<?xml version="1.0"?>
<svg xmlns="http://www.w3.org/2000/svg" xmlns:xlink="http://www.w3.org/1999/xlink" xmlns:svgjs="http://svgjs.com/svgjs" version="1.1" width="512" height="512" x="0" y="0" viewBox="0 0 120 120" style="enable-background:new 0 0 512 512" xml:space="preserve"><g>
<g xmlns="http://www.w3.org/2000/svg">
	<path d="M107,103c0,1.7-1.3,3-3,3H17c-1.7,0-3-1.3-3-3V16c0-1.7,1.3-3,3-3h20.7c-1.5-5.5,0-11,3.2-13H14.6C6.6,0,0,6.6,0,14.6v90.8   c0,8,6.6,14.6,14.6,14.6h91.8c7.5,0,13.6-6.1,13.6-13.6V79.7c-4.7,3.7-8.4,3.6-13,3.8V103z" fill="#ffffff" data-original="#000000" style=""/>
	<path d="M97.1,65.5c2.4,2.4,5.4,3.6,8.801,3.6c0.399,0,0.699,0,1.1-0.1c2.9-0.3,5.6-1.5,7.7-3.6c2.1-2.101,3.399-4.9,3.6-7.8   c0-0.4,0.101-0.7,0.101-1.1c0-43.7,0-43.8,0-43.8c-0.101-3.4-1.7-6.7-4.301-9c-2.399-2.1-5.399-3.1-8.8-3.1c-0.3,0-42.7,0-42.7,0   c-0.199,0-0.399,0-0.6,0c-3.1,0.1-6,1.4-8.2,3.6c-2.3,2.3-3.6,5.4-3.6,8.7c0,0.1,0,0.1,0,0.2c0,3.3,1.4,6.5,3.7,8.9   c2.4,2.4,5.9,4,9.2,4L76.7,26.5L49.4,53.7c-4.9,4.9-4.8,12.899,0.1,17.8s12.9,5,17.8,0.1L94.4,44.5L93.8,57.1   C93.9,60.4,94.7,63.1,97.1,65.5z" fill="#ffffff" data-original="#000000" style=""/>
</g>
<g xmlns="http://www.w3.org/2000/svg">
</g>
<g xmlns="http://www.w3.org/2000/svg">
</g>
<g xmlns="http://www.w3.org/2000/svg">
</g>
<g xmlns="http://www.w3.org/2000/svg">
</g>
<g xmlns="http://www.w3.org/2000/svg">
</g>
<g xmlns="http://www.w3.org/2000/svg">
</g>
<g xmlns="http://www.w3.org/2000/svg">
</g>
<g xmlns="http://www.w3.org/2000/svg">
</g>
<g xmlns="http://www.w3.org/2000/svg">
</g>
<g xmlns="http://www.w3.org/2000/svg">
</g>
<g xmlns="http://www.w3.org/2000/svg">
</g>
<g xmlns="http://www.w3.org/2000/svg">
</g>
<g xmlns="http://www.w3.org/2000/svg">
</g>
<g xmlns="http://www.w3.org/2000/svg">
</g>
<g xmlns="http://www.w3.org/2000/svg">
</g>
<script/></g></svg>
