<?xml version="1.0" encoding="utf-8"?>
<!-- Generator: Adobe Illustrator 24.0.1, SVG Export Plug-In . SVG Version: 6.00 Build 0)  -->
<svg version="1.1" id="Layer_1" xmlns="http://www.w3.org/2000/svg" xmlns:xlink="http://www.w3.org/1999/xlink" x="0px" y="0px"
	 viewBox="0 0 1170 666.1" style="enable-background:new 0 0 1170 666.1;" xml:space="preserve">
<style type="text/css">
	.st0{fill:#FF8AE2;}
	.st1{fill:#9C4668;}
	.st2{fill:#93C2DB;}
</style>
<path class="st0" d="M737.7,244.6V115.3l-13.4,13.4v115.9l23,23.3l-23,23.3h13.4l23.2-23.3L737.7,244.6z"/>
<path class="st0" d="M1083.3,105.2h-13.4l23,23.3v38.7v23.3v85.1l-15.4,15.6h13.4l15.6-15.6v-85.1v-23.3v-38.7L1083.3,105.2z"/>
<path class="st0" d="M505.5,43.1h-12.4l23.2,23.3v38.7v23.3v46.4v100.7l-15.6,15.6h12.5l15.4-15.6V66.4L505.5,43.1z"/>
<path class="st0" d="M292,244.6V115l-13.4,13.4v116.2l23.2,23.3l-23.2,23.3H292l23.2-23.3L292,244.6z"/>
<path class="st0" d="M657.1,81.9h-13.4v23.3h13.4V81.9z"/>
<path class="st0" d="M643.7,260.1l13.4-13.4V136.1l31-30.9h-13.4l-31,30.9V260.1z"/>
<path class="st0" d="M659.3,244.6l7.6,7.8l-23.2,23.1l-15.4,15.6h13.4l15.4-15.6l23.2-23.1l-7.6-7.8H659.3z"/>
<path class="st0" d="M863.8,244.6V128.4v-23.3V66.4l-23.2-23.3h-13.4l23.2,23.3v38.7v23.3v116.2l23,23.3l-23,23.3h13.4l23.2-23.3
	L863.8,244.6z"/>
<path class="st0" d="M887,105.2h-13.6l31,30.9v100.7l-24.2,24.3l6.8,6.8l30.8-31.1V136.1L887,105.2z"/>
<path class="st0" d="M110.7,95.6v56.6l13.4-13.4V95.6V55L99.7,30.6h-0.2H86.3L110.7,55V95.6z"/>
<path class="st0" d="M183.5,63.2v32.4v122.2v24.5l16.3,16.3l6.8-6.8l-9.7-9.5v-24.5V95.6V63.2V55l-24.4-24.5h-13.4L183.5,55V63.2z"
	/>
<path class="st0" d="M151,146.9l-40.3,40.4v87.5l-16.3,16.3h13.4l16.3-16.3v-87.5l26.9-27V146.9z"/>
<path class="st0" d="M70,63.4L45.6,87.7h13.6L76.8,70L70,63.4z"/>
<path class="st0" d="M229.5,242.3h-13.4l8.1,8.2l-16.3,16.3l-8.1,8.2l-16.3,16.3h13.4l16.3-16.3l8.1-8.2l16.3-16.3L229.5,242.3z"/>
<path class="st0" d="M761,105.2h-13.6l31,30.9v100.7l-24.2,24.3l6.8,6.8l30.8-31.1V136.1L761,105.2z"/>
<path class="st0" d="M1024.3,135.9l-53.9,54v54.7l15.4,15.5l6.8-6.6l-8.8-8.8v-54.7l53.9-54l-30.7-30.8h-13.4L1024.3,135.9z"/>
<path class="st0" d="M1009.1,236.8l7.8,7.8l-23.2,23.3l-7.8,7.6l-15.4,15.6h13.4l15.4-15.6l7.8-7.6l23.2-23.3l-7.8-7.8H1009.1z"/>
<path class="st0" d="M970.4,174.5l13.4-13.4v-19.2l-13.4-13.4V174.5z"/>
<path class="st0" d="M346.1,252.4V136.1l-30.8-30.9h-13.4l30.8,30.9v116.4l15.4,15.5l-23,23.3h13.4l23-23.3L346.1,252.4z"/>
<path class="st0" d="M425.9,260.1l6.6-6.6l-8.6-8.8V141.5l-13.2-13.1h-0.2v116.2L425.9,260.1z"/>
<path class="st0" d="M462.5,236.8h-13.4l7.6,7.8l-23,23.3l-7.8,7.6l-15.4,15.6h13.4l15.4-15.6l7.8-7.6l23-23.3L462.5,236.8z"/>
<path class="st0" d="M433.7,151.4h13.4l23-23.3l-23-23.3h-13.4l23,23.3L433.7,151.4z"/>
<path class="st0" d="M553,105.2h-13.6l23.2,23.3l-23.2,23.3H553l23-23.3L553,105.2z"/>
<path class="st0" d="M1129.6,105.2h-13.4l23.2,23.3l-23.2,23.3h13.4l23.2-23.3L1129.6,105.2z"/>
<path class="st0" d="M553,151.7h-13.6l23.2,23.1v100.7l-15.4,15.6h13.4l15.4-15.6V174.8L553,151.7z"/>
<path class="st1" d="M674.7,105.2h-31V81.9l-54.1,54.2h23.2v139.5l15.4,15.6l15.4-15.6l23.2-23.1l-7.6-7.8l-15.6,15.5v-124
	L674.7,105.2z"/>
<path class="st1" d="M850.4,128.4v-23.3V66.4l-23.2-23.3L804,66.4l15.4,15.5v178.2l31,31.1l23-23.3l-23-23.3V128.4z"/>
<path class="st1" d="M850.4,128.4l23,23.3v116.2l31-31.1V136.1l-31-30.9L850.4,128.4z"/>
<path class="st1" d="M199.8,258.6l-16.3-16.3v-24.5V95.6V63.2V55l-24.4-24.5L134.9,55L151,71.2v40.6l-40.3,40.4V95.6V55L86.3,30.6
	h-0.2L37.3,79.3l8.3,8.3L70,63.4l8.1,8.2v203.4l16.3,16.3l16.3-16.3v-87.5l40.3-40.4v70.8v40.8l32.5,32.6l16.3-16.3l8.1-8.2
	l16.3-16.3l-8.1-8.2L199.8,258.6z"/>
<path class="st1" d="M724.3,128.4l-31,30.9v100.7l31,31.1l23-23.3l-23-23.3V128.4z"/>
<path class="st1" d="M724.3,128.4l23,23.3v116.2l31-31.1V136.1l-31-30.9L724.3,128.4z"/>
<path class="st1" d="M1024.3,135.9l-30.7-30.8l-23.2,23.3l23,22.9l-23,23.1v-46l-31,30.9v100.7l31,31.1l15.4-15.6l7.8-7.6l23.2-23.3
	l-7.8-7.8l-23.2,23.3l-15.4-15.5v-54.7L1024.3,135.9z"/>
<path class="st1" d="M278.6,128.4l-31,30.9v100.7l31,31.1l23.2-23.3l-23.2-23.3V128.4z"/>
<path class="st1" d="M332.7,136.1l-30.8-30.9l-23.2,23.3l23.2,23.3v116.2l23.2,23.3l23-23.3l-15.4-15.5V136.1z"/>
<path class="st1" d="M425.9,260.1l-15.4-15.5V128.4l-31,30.9v100.7l31,31.1l15.4-15.6l7.8-7.6l23-23.3l-7.6-7.8L425.9,260.1z"/>
<path class="st1" d="M433.8,104.9l-23.3,23.3l23.3,23.3l23.3-23.3L433.8,104.9z"/>
<path class="st1" d="M539.7,105.1l-23.3,23.3l23.3,23.3l23.3-23.3L539.7,105.1z"/>
<path class="st1" d="M531.8,190.4v85.1l15.4,15.6l15.4-15.6V174.8l-23.2-23.1l-23,23.1L531.8,190.4z"/>
<path class="st1" d="M516.4,105.2V66.4l-23.2-23.3L470,66.4l15.4,15.5v193.7l15.4,15.6l15.6-15.6V174.8v-46.4V105.2z"/>
<path class="st1" d="M1116.4,105.1l-23.3,23.3l23.3,23.3l23.3-23.3L1116.4,105.1z"/>
<path class="st1" d="M1046.7,128.4l15.4,15.5v23.3v23.3v85.1l15.4,15.6l15.4-15.6v-85.1v-23.3v-38.7l-23-23.3L1046.7,128.4z"/>
<path class="st1" d="M711.6,45.4v-9.2h3.6c3.2,0,5.8,2.5,5.8,5.8v25c-3.6,1.2-6.1,4.6-6.1,8.7c0,2.5,1,4.8,2.5,6.5
	c1.7,1.7,3.9,2.7,6.6,2.7c5.1,0,9.2-4.1,9.2-9.2c0-3.7-2.4-7-5.6-8.5V42c0-3.4-1.4-6.5-3.7-8.8s-5.4-3.7-8.8-3.7h-3.6v-9.2
	l-12.4,12.4L711.6,45.4z M724.2,71.5c1.2,0,2.2,0.5,3.1,1.2c0.7,0.7,1.2,1.9,1.2,2.9c0,1.2-0.5,2.2-1.2,2.9
	c-0.8,0.8-1.9,1.2-2.9,1.2c-2.4,0-4.2-1.9-4.2-4.2C719.9,73.4,721.8,71.5,724.2,71.5z"/>
<path class="st1" d="M697.2,75.8c0-3.7-2.4-7-5.6-8.5V41.4c3.2-1.4,5.6-4.6,5.6-8.5c0-5.1-4.1-9.2-9.2-9.2c-5.1,0-9.2,4.1-9.2,9.2
	c0,2.4,0.8,4.8,2.5,6.5c1,1,2.2,1.7,3.4,2.2v25.5c-3.6,1.2-6.1,4.6-6.1,8.7c0,2.5,1,4.8,2.5,6.5c1.7,1.7,3.9,2.7,6.6,2.7
	C693.2,84.9,697.2,80.7,697.2,75.8z M688.1,37.2c-1.2,0-2.2-0.5-2.9-1.2c-0.8-0.8-1.2-1.9-1.2-2.9c0-2.4,1.9-4.2,4.2-4.2
	c1.2,0,2.2,0.5,3.1,1.2c0.7,0.7,1.2,1.9,1.2,2.9C692.3,35.3,690.4,37.2,688.1,37.2z M688.1,79.8c-2.4,0-4.2-1.9-4.2-4.2
	c0-1.2,0.5-2.2,1.2-2.9c0.8-0.8,1.9-1.2,2.9-1.2c1.2,0,2.2,0.5,3.1,1.2c0.7,0.7,1.2,1.9,1.2,2.9C692.3,78,690.4,79.8,688.1,79.8z"/>
<path class="st1" d="M936,118.1c3.7-3.4,4.1-9.2,0.7-12.9c-1-1-2-1.9-3.2-2.4V85.3c6.4,8.3,14.1,11.9,19.8,13.6c0.3,1.5,1,2.9,2,4.1
	c1.7,1.9,3.9,2.9,6.3,3.1c2.4,0.2,4.7-0.7,6.6-2.4c3.7-3.4,4.1-9.2,0.7-12.9c-1.7-1.9-3.9-2.9-6.3-3.1c-2.2-0.2-4.2,0.5-6.1,1.9
	c-0.2,0.2-0.3,0.3-0.5,0.5c-0.7,0.7-1.4,1.4-1.7,2.2c-5.1-1.7-11.9-5.4-17.3-13.8c3.1-3.4,3.2-8.7,0-12.2c-3.2-3.6-8.6-4.1-12.4-1.2
	c-0.2,0.2-0.3,0.3-0.5,0.5c-3.7,3.4-4.1,9.2-0.7,12.9c1,1.2,2.2,1.9,3.6,2.4v21.7c-0.8,0.3-1.7,0.7-2.4,1.4
	c-0.2,0.2-0.3,0.3-0.5,0.5c-1.9,1.7-2.9,3.9-3.1,6.3c-0.2,2.4,0.7,4.8,2.4,6.6C926.5,121,932.3,121.3,936,118.1z M959.4,93.6
	c0.8-0.7,1.9-1.2,3.1-1c1.2,0,2.2,0.5,2.9,1.4c1.5,1.7,1.4,4.4-0.3,5.9c0,0-0.2,0.2-0.3,0.2c-0.8,0.7-1.7,0.8-2.7,0.8
	c-1.2,0-2.2-0.5-2.9-1.4s-1.2-1.9-1-3.1C958.1,95.5,958.6,94.4,959.4,93.6z M927.4,69.3c1.7-1.5,4.4-1.4,5.9,0.3
	c1.5,1.7,1.4,4.4-0.3,5.9l-0.2,0.2c-1.7,1.4-4.2,1-5.6-0.5C925.5,73.4,925.7,70.8,927.4,69.3z M925.9,110.9c0-1.2,0.5-2.2,1.4-2.9
	c1.7-1.5,4.4-1.4,5.9,0.3c1.5,1.7,1.4,4.4-0.3,5.9l-0.2,0.2c-1.7,1.4-4.2,1-5.6-0.5C926.2,113.1,925.7,111.9,925.9,110.9z"/>
<path class="st1" d="M274,23.9c0-0.7,0.2-1.5,0.5-2.2h-12.2V27h12.2C274,26.2,273.9,25,274,23.9z"/>
<path class="st1" d="M291,25c0,0.7-0.2,1.5-0.5,2.2h12.2v-5.3h-12C290.8,22.8,291,23.8,291,25z"/>
<path class="st1" d="M293.5,24.5c0,0.2,0,0.5,0,0.7c-0.2,3.1-1.5,5.8-3.7,7.6c-2.2,2-5.1,2.9-8,2.7c-6.1-0.3-10.8-5.6-10.5-11.7
	c0.2-3.1,1.5-5.8,3.7-7.6c2.2-2,5.1-2.9,8-2.7C289.1,13.6,293.5,18.5,293.5,24.5z M276.6,24.5c0,3.1,2.4,5.6,5.6,5.9
	c1.5,0.2,3.1-0.5,4.2-1.5c1.2-1,1.9-2.5,2-4.1c0.2-3.2-2.2-5.9-5.4-6.3l0.2-2.5l-0.2,2.5c-1.5-0.2-3.1,0.5-4.2,1.5
	c-1.2,1-1.9,2.5-2,4.1C276.6,24.1,276.6,24.3,276.6,24.5z"/>
<path class="st1" d="M1031.1,303.2c0-0.7,0.2-1.5,0.5-2.2h-12.2v5.3h12.2C1031.3,305.5,1031.1,304.3,1031.1,303.2z"/>
<path class="st1" d="M1048.1,304.3c0,0.7-0.2,1.5-0.5,2.2h12.2v-5.3h-12C1048.1,302.1,1048.2,303.1,1048.1,304.3z"/>
<path class="st1" d="M1050.8,303.8c0,0.2,0,0.5,0,0.7c-0.2,3.1-1.5,5.8-3.7,7.6c-2.2,1.9-5.1,2.9-8,2.7c-6.1-0.3-10.8-5.6-10.5-11.7
	c0.2-3.1,1.5-5.8,3.7-7.6c2.2-2,5.1-2.9,8-2.7C1046.2,293.1,1050.8,297.8,1050.8,303.8z M1033.8,303.8c0,3.1,2.4,5.6,5.6,5.9
	c1.5,0.2,3-0.5,4.2-1.5c1.2-1,1.9-2.5,2-4.1c0.2-3.2-2.2-5.9-5.4-6.3l0.2-2.5l-0.2,2.5c-1.5-0.2-3.1,0.5-4.2,1.5
	c-1.2,1-1.9,2.5-2,4.1C1033.8,303.6,1033.8,303.6,1033.8,303.8z"/>
<path class="st1" d="M142.7,320.9c0-0.7,0.2-1.5,0.5-2.2H131v5.3h12.2C142.7,323.1,142.5,321.9,142.7,320.9z"/>
<path class="st1" d="M159.6,321.9c0,0.7-0.2,1.5-0.5,2.2h12.2v-5.3h-12C159.5,319.7,159.6,320.7,159.6,321.9z"/>
<path class="st1" d="M162.2,321.4c0,0.2,0,0.5,0,0.7c-0.2,3.1-1.5,5.8-3.7,7.6c-2.2,2-5.1,2.9-8,2.7c-6.1-0.3-10.8-5.6-10.5-11.7
	c0.2-3.1,1.5-5.8,3.7-7.6c2.2-1.9,5.1-2.9,8-2.7C157.6,310.6,162.2,315.5,162.2,321.4z M145.2,321.4c0,3.1,2.4,5.6,5.6,5.9
	c1.5,0.2,3.1-0.5,4.2-1.5c1.2-1,1.9-2.5,2-4.1c0.2-3.2-2.2-5.9-5.4-6.3l0.2-2.7l-0.2,2.7c-1.5-0.2-3.1,0.5-4.2,1.5
	c-1.2,1-1.9,2.5-2,4.1C145.2,321.3,145.2,321.3,145.2,321.4z"/>
<path class="st1" d="M576.2,76.1c0-0.7,0.2-1.5,0.5-2.2h-12.2v5.3h12.2C576.4,78.1,576.2,77.1,576.2,76.1z"/>
<path class="st1" d="M593.2,77.1c0,0.7-0.2,1.5-0.5,2.2h12.2v-5.4h-12C593.2,74.9,593.3,75.9,593.2,77.1z"/>
<path class="st1" d="M595.9,76.6c0,0.2,0,0.5,0,0.7c-0.2,3.1-1.5,5.8-3.7,7.6c-2.2,2-5.1,2.9-8,2.7c-6.1-0.3-10.8-5.6-10.5-11.7
	c0.2-3.1,1.5-5.8,3.7-7.6c2.2-2,5.1-2.9,8-2.7C591.3,65.7,595.9,70.7,595.9,76.6z M578.9,76.6c0,3.1,2.4,5.6,5.6,5.9
	c1.5,0.2,3-0.5,4.2-1.5c1.2-1,1.9-2.5,2-4.1c0.2-3.2-2.2-5.9-5.4-6.3l0.2-2.5l-0.2,2.5c-1.5-0.2-3.1,0.5-4.2,1.5
	c-1.2,1-1.9,2.5-2,4.1C578.9,76.3,578.9,76.4,578.9,76.6z"/>
<path class="st1" d="M407.3,77.5c-2.7-4.2-8.5-5.4-12.7-2.5c-2,1.4-3.4,3.4-3.9,5.8c-0.5,2.4,0,4.9,1.4,7c0.8,1.4,2.7,2.7,4.2,3.1
	v6.5c0,1.9-1.5,6.1-6.1,6.1h-16.6V87c1.2-0.5,2.4-1.2,3.2-2.4c3.4-3.7,3.1-9.5-0.7-12.9c-3.7-3.4-9.5-3.1-12.9,0.7
	c-1.7,1.9-2.4,4.2-2.4,6.6c0,2.4,1.2,4.8,3.1,6.3c0.2,0.2,0.3,0.3,0.5,0.5c0.7,0.5,1.5,1,2.4,1.4v21.7c-1.4,0.5-2.5,1.4-3.6,2.4
	c-3.4,3.7-3.1,9.5,0.7,12.9c0.2,0.2,0.3,0.3,0.5,0.5c3.7,2.9,9.2,2.4,12.4-1.2c3.1-3.6,3.1-9,0-12.2c-0.5-0.5-0.8-0.8-1.2-1.2H390
	c8.8,0,12.7-7.5,12.7-12.6v-6.3c0.5-0.2,1.2-0.5,1.7-0.8c0.2-0.2,0.3-0.3,0.5-0.5c1.7-1.4,2.9-3.2,3.4-5.4
	C409.1,81.9,408.6,79.5,407.3,77.5z M365.9,78.6c0-1.2,0.3-2.2,1-3.1c1.5-1.7,3.9-1.9,5.6-0.5c0.2,0,0.2,0.2,0.2,0.2
	c1.7,1.5,1.9,4.2,0.3,5.9c-1.5,1.7-4.2,1.9-5.9,0.3C366.4,80.7,365.9,79.7,365.9,78.6z M373.4,119.9c-1.5,1.7-4.1,1.9-5.9,0.3
	c-1.7-1.5-1.9-4.2-0.3-5.9c1.5-1.7,3.9-1.9,5.6-0.5c0.2,0,0.2,0.2,0.2,0.2C374.7,115.5,374.9,118.2,373.4,119.9z M403.7,83.4
	c-0.2,1-0.8,2-1.9,2.7c-0.8,0.7-2,0.8-3.2,0.7c-1-0.2-2-0.8-2.7-1.9c-0.7-0.8-0.8-2-0.7-3.2c0.2-1,0.7-1.9,1.5-2.4
	c0.2,0,0.2-0.2,0.3-0.2c1.9-1.2,4.6-0.7,5.8,1.2C403.7,81.2,403.9,82.2,403.7,83.4z"/>
<path class="st0" d="M95.8,65.7h-3.2v194.5h3.2V65.7z"/>
<path class="st0" d="M169.6,65.7h-3.2v181.1h3.2V65.7z"/>
<path class="st0" d="M500.8,74.7h-3.2v193h3.2V74.7z"/>
<path class="st0" d="M835.4,77h-3.2v170.9h3.2V77z"/>
<path class="st0" d="M318.6,144.6h-3.2v111.1h3.2V144.6z"/>
<path class="st0" d="M629.4,144.6h-3.2v111.1h3.2V144.6z"/>
<path class="st0" d="M1078,139.1h-3.2v121.8h3.2V139.1z"/>
<path class="st0" d="M763.7,142.5h-3.2v91.1h3.2V142.5z"/>
<path class="st0" d="M888.6,144.6h-3.2v91.1h3.2V144.6z"/>
<path class="st0" d="M954.5,164.3h-3.2v91.1h3.2V164.3z"/>
<path class="st0" d="M711,163.3h-3.2v91.1h3.2V163.3z"/>
<path class="st0" d="M396.4,160.9h-3.2v92.9h3.2V160.9z"/>
<path class="st0" d="M264.2,162.9H261v90h3.2V162.9z"/>
<path class="st0" d="M547.8,181.1h-3.2v90h3.2V181.1z"/>
<path class="st0" d="M95.8,185.7l-2.5-2.5l73.6-73.9l2.5,2.7L95.8,185.7z"/>
<path class="st0" d="M1053.3,239.4c1.7,5.1,5.4,8.8,8.8,10.7v-25.3C1054,233.3,1053.3,239.2,1053.3,239.4z"/>
<path class="st0" d="M598.3,250.8c-0.3-0.5-0.5-1.2-0.7-1.7C597.7,249.7,597.9,250.2,598.3,250.8z"/>
<path class="st0" d="M612.7,219.5c-18.3,14.4-14.4,31.3-14.4,31.3c2.9,6.1,9,9.7,14.6,11.7L612.7,219.5z"/>
<path class="st1" d="M346.1,191.1v36.7c3.9-3.6,8.1-8.3,10.2-13.6C356.7,212,358.1,201.5,346.1,191.1z"/>
<path class="st2" d="M234.6,342.7c0,0,11.9,5.4,9,36.4c-1.4,13.6,5.9,26.2,5.9,26.2s-21.9-5.3-24.9-21.7
	C222.2,371,232.7,358.6,234.6,342.7z"/>
<path class="st2" d="M212.7,67.6c0,0,25.4-19.7,13.6-54.9c0,0-14.6,5.1-12,20.4C216.9,50.1,217.1,60.6,212.7,67.6z"/>
<path class="st2" d="M1045.3,206.6c0,0-11.3-34.1,21.7-59.6c0,0,9.3,12.9-1.5,26.5C1054.7,187,1045.5,197.4,1045.3,206.6z"/>
<path class="st2" d="M592.3,203.9c0,0-12.2-31.9,11.2-45.5c0,0,2.7,5.9,1.5,15.8C603.7,184.5,596.9,186,592.3,203.9z"/>
<path class="st2" d="M409.8,71.2c0,0,8.3-21.9,28-16C437.8,55,432.5,75.3,409.8,71.2z"/>
<path class="st2" d="M386.6,64.7c0,0-15.1-16.1,0.8-32.3C387.6,32.4,401.3,45.4,386.6,64.7z"/>
<path class="st2" d="M356.7,71.2c0,0-22,3.6-29.3-13.3C327.3,57.9,348.1,50.6,356.7,71.2z"/>
<path class="st2" d="M705.7,329.6c0,0,8.3-21.9,28-16C733.7,313.6,728.4,333.8,705.7,329.6z"/>
<path class="st2" d="M682.5,323.3c0,0-15.1-16.1,0.8-32.3C683.3,291,697.2,303.9,682.5,323.3z"/>
<path class="st2" d="M652.7,329.8c0,0-22,3.6-29.3-13.3C623.2,316.3,644,309,652.7,329.8z"/>
<path class="st2" d="M931.6,50.8c0,0-8.3-17.7,5.9-31.8C937.4,19,949.1,34,931.6,50.8z"/>
<path class="st2" d="M919.2,53.3c0,0-19.5-1-25.1-20.4C894.2,32.9,912.8,29.9,919.2,53.3z"/>
<path class="st2" d="M461.8,622.1c0,0-18.8,9.9-31.7-5.9C430.1,616.2,447.9,605.2,461.8,622.1z"/>
<path class="st2" d="M470.6,634.5c0,0-0.8,21.9-20.3,25.1C450.3,659.5,448.8,638.8,470.6,634.5z"/>
<path class="st2" d="M717.1,549.3c0,0,17.6-8.3,31.7,5.9C748.7,555,733.8,566.8,717.1,549.3z"/>
<path class="st2" d="M714.5,536.9c0,0,1-19.5,20.3-25.1C734.7,511.7,737.9,530.4,714.5,536.9z"/>
<path class="st2" d="M1119.9,302.4c0,0,19.5,5.9,18.3,26.7C1138.2,328.9,1116.2,326.7,1119.9,302.4z"/>
<path class="st2" d="M1123.5,291.9c0,0,12.5-15.3,32-3.4C1155.5,288.5,1144.5,303.8,1123.5,291.9z"/>
<path class="st2" d="M30.7,93.1c0,0-9.7,18.5-30.7,9.9C0,102.9,8.5,82.6,30.7,93.1z"/>
<path class="st2" d="M40,99.9c0,0,15.1,17,0,32.3C39.8,132.2,23.9,115.2,40,99.9z"/>
<path class="st2" d="M675.4,25.3c0,0-19-4.1-21.5-24C653.7,1.3,672.7,1.2,675.4,25.3z"/>
<path class="st2" d="M669.8,36.7c0,0-12.7,14.8-31.4,7.6C638.6,44.3,647.4,27.5,669.8,36.7z"/>
<path class="st2" d="M991.1,230.4c0,0,3.6-6.3,4.7-12.6c2.2-10.5,3.2-21.1,15.9-21.6C1012,196.2,1012.3,225.1,991.1,230.4z"/>
<path class="st2" d="M915.9,374.3c0,0,12.2-19.5,33.6-21.7c26.3-2.5,35.1-17.8,40-27c0,0-36.1-0.5-50.2,7.3
	C924.8,340.8,920.8,349.8,915.9,374.3z"/>
<path class="st2" d="M528.8,269.4c1-11.6,1-40.3-1.9-53c-3.7-17-7.1-16.5-9.3-15.6c-2.2,0.8-1.7,3.2-2.9,4.6
	c-1.4,1.4-3.4,3.1-6.1-2.4c-2.7-5.6-4.7-21.6-9.8-27.2c-5.3-5.8-8.6,3.6-11,5.8c-2.4,2.2-2.7,3.7-9.3-0.7
	c-6.6-4.4-24.6-13.6-32.2-7.6c-7.5,5.9,0.7,13.4,3,15c4.9,3.2,20.7,8.2,21.9,10.9c2,4.9-8.6,5.4-10.7,9c-2,3.6,0.7,7.3,5.6,8.5
	c4.9,1.2,18.1-1.4,23.7,0c5.4,1.4,4.2,3.2,2.4,4.4c-1,0.7-10.5,5.9-9,10.5c1.7,5.4,7.1,7.1,20.3,5.9c10-0.8,17.5,6.3,19.7,12.1
	C525.4,255.5,528.8,269.4,528.8,269.4z"/>
<path class="st0" d="M462,179.2c-1-0.7-2-1.2-2.4-1.4l-1.9,1.2c0,0,0.3,0.3,3.1,1.9c43,25.8,60.8,53.2,68.3,72.9c0-1.7,0-3.4,0-5.1
	C520.8,229,502.3,203.4,462,179.2z"/>
<path class="st2" d="M746.7,195.7c0,0-2.9-26.3,1.5-47.4c2.7-12.7,11.2-29.6,23.2-43.2C785,90,789.8,87.5,792.8,87.5
	c1.4,0,0.5,2,0,4.1c-1.4,4.9-2.5,8.7-4.1,15.5c-2.9,13.8,0,19.2-4.2,26.2c-2.4,4.1-16.6,9.3-12.9,14.4c2.2,2.9,13.9-8.8,17.1-4.9
	c3.2,3.7-3,21.2-11.5,26.5C753,184,746.7,195.7,746.7,195.7z"/>
<path class="st2" d="M841.8,365.9v-13.4h-75.9v22.8h13.7v14.3h-13.7h-0.3v14.1h-13.7h41.7v-14.1h61.7v-23.6H841.8z"/>
<path class="st2" d="M512.3,410.6h-14.1v-32.5h-21.2v114.7h13.7v-14.1h21.5v-13.3v-27.4h25.6v-10.7h20.2v-16.8H512.3z"/>
<path class="st2" d="M702.8,462.3h-14.1v14.1h14.1V462.3z"/>
<path class="st2" d="M567.7,465.5h-14.1v14.1h14.1V465.5z"/>
<path class="st2" d="M581.8,479.6h-14.1v14.1h14.1V479.6z"/>
<path class="st2" d="M674.7,504.7v-14.3h14.1v-14.1h-12.4v-30.8h-16.3v30.8h-39.5v13.1h-13.2v15.3h18.8H674.7z"/>
<path class="st2" d="M635.4,366.8h-14.1v14.1h14.1V366.8z"/>
<path class="st2" d="M649.4,352.5h-14.1v14.1h14.1V352.5z"/>
<path class="st2" d="M450.5,367.6h-20v10.7h20V367.6z"/>
<path class="st2" d="M387.1,384.3H373v-14.1H359v14.1H373v26.5v27.4h62.9v-27.4h-48.8V384.3z M401.3,423.9V438h-14.1v-14.1H401.3z"
	/>
<path class="st2" d="M756.4,469.3v-11.9h-11.9v11.9H756.4z"/>
<path class="st2" d="M353,329.6h-12.7v12.2H353V329.6z"/>
<path class="st2" d="M550.3,38.1V25.7h-12.4v12.4H550.3z"/>
<path class="st2" d="M782.1,54V41.6h-12.4V54H782.1z"/>
<path class="st2" d="M1170,226.1v-12.4h-12.4v12.4H1170z"/>
<path class="st2" d="M742.5,614.2h12.4v-12.4h-12.4V614.2z"/>
<path class="st2" d="M535.1,659.4h12.4V647h-12.4V659.4z"/>
<path class="st2" d="M799.1,295.4v-11.9h-11.9v11.9H799.1z"/>
<path class="st2" d="M919.6,314.8v-11.9h-11.9v11.9H919.6z"/>
<path class="st2" d="M459.9,304.2h11.9v-11.9h-11.9V304.2z"/>
<path class="st2" d="M441.1,509.1v-11.9h-11.9v11.9H441.1z"/>
<path class="st1" d="M793.5,389.6v14.1h-18v101.1h21.7v-13.3h13.2V389.6H793.5z"/>
<path class="st1" d="M649.4,352.5v14.3h-14.1v14.1h-14.1h-14.1v50.5v-13.9h14.2v6.8h17.6v-6.8v-27.9H686v-11.2h12.4v-25.8H649.4z"/>
<path class="st0" d="M471.9,316.1h11.9v-11.9h-11.9V316.1z"/>
<path class="st1" d="M553.3,365.3v-12.7h-48.8v-10.7h-34.9v36.4h28.6v32.5h14.1v-23.3h14.4v-22.1H553.3z"/>
<path class="st1" d="M373,452.2v-14.1v-27.5v-26.3H359v-14.1H373v-14.3h14.1v-3.4V342H353v14.4v1.5v139h34.1v-44.7H373z"/>
<path class="st1" d="M353,496.9h-12.7v12.2H353V496.9z"/>
<path class="st1" d="M854.8,352.5h-13.2v13.3h13.2V352.5z"/>
<path class="st1" d="M868.1,365.9h-13.2v23.6h13.2V365.9z"/>
<path class="st1" d="M868.1,339.3h-13.2v13.3h13.2V339.3z"/>
<path class="st1" d="M688.8,490.5h-14.1v14.1h14.1V490.5z"/>
<path class="st1" d="M512.3,492.9h-21.5v11.9h21.5V492.9z"/>
<path class="st0" d="M12.4,144.6v-12.4H0v12.4H12.4z"/>
<path class="st0" d="M359.2,23.3V10.9h-12.4v12.4H359.2z"/>
<path class="st0" d="M1151.5,83.1V70.7h-12.4v12.4H1151.5z"/>
<path class="st0" d="M1041,361.1h12.4v-12.4H1041V361.1z"/>
<path class="st0" d="M1053.1,349.1h12.4v-12.4h-12.4V349.1z"/>
<path class="st0" d="M290.7,451.8h12.4v-12.4h-12.4V451.8z"/>
<path class="st0" d="M427.4,570.7h12.4v-12.4h-12.4V570.7z"/>
<path class="st0" d="M595,517.1h12.4v-12.4H595V517.1z"/>
<path class="st0" d="M809.9,327.4v-11.9H798v11.9H809.9z"/>
<path class="st0" d="M907.6,326.8v-11.9h-11.9v11.9H907.6z"/>
<path class="st0" d="M584.5,352.5h-31.2v12.7h-26.6v22.1h43.6v-14.6h14.2V352.5z"/>
<path class="st0" d="M597.2,340.5h-12.7v12.2h12.7V340.5z"/>
<path class="st0" d="M988.6,33.5h-13.2v13.3h13.2V33.5z"/>
<path class="st0" d="M823.7,504.7h-13.2V518h13.2V504.7z"/>
<path class="st0" d="M810.4,491.5h-13.2v13.3h13.2V491.5z"/>
<path class="st0" d="M702.8,462.3v-26.2h-9.3v-11.9h-72v-6.8h-14.2v14.1h14.1v14.1h38.8h7.5h8.8v30.8h12.4v-14.1H702.8z"/>
<path class="st0" d="M635.4,352.5h-14.1v14.1h14.1V352.5z"/>
<path class="st0" d="M621.3,366.8h-14.1v14.1h14.1V366.8z"/>
<path class="st0" d="M557.9,427.4h-20v10.7h20V427.4z"/>
<path class="st0" d="M340.3,509.2h-13.2v13.3h13.2V509.2z"/>
<path class="st0" d="M401.2,423.9h-14.1V438h14.1V423.9z"/>
<path class="st0" d="M387.1,438.1H373v14.1h14.1V438.1z"/>
<path class="st0" d="M416.4,352.5v-10.7h-15.1h-14.2v14.1H373v28.4h14.1v-5.9h43.4v-10.7h20.2v-15.1H416.4z"/>
<path class="st0" d="M793.7,361.2h-14.1v14.1h14.1V361.2z"/>
<path class="st0" d="M765.9,375.3v-22.8h-46.3v37h31.9v14.1h14.1v-14.1h0.3h13.7v-14.3H765.9z"/>
<path class="st0" d="M567.7,493.7v-14.1h-14.1v-14.1h-41.4v13.3h-21.5v14.1h21.5v4.1v7.8H582v-11H567.7z"/>
<path class="st1" d="M702.8,476.4h-14.1v14.1h14.1V476.4z"/>
<path class="st1" d="M769.6,66.5V54.1h-12.4v12.4H769.6z"/>
<path class="st1" d="M58.8,181v-12.4H46.4V181H58.8z"/>
<path class="st1" d="M387.2,310v-12.4h-12.4V310H387.2z"/>
<path class="st1" d="M248.9,306.1v-12.4h-12.4v12.4H248.9z"/>
<path class="st1" d="M1157.6,238.6v-12.4h-12.4v12.4H1157.6z"/>
<path class="st1" d="M730.3,601.7h12.4v-12.4h-12.4V601.7z"/>
<path class="st1" d="M855.3,454.4h12.4V442h-12.4V454.4z"/>
<path class="st0" d="M522.7,647.1H535v-12.4h-12.4V647.1z"/>
<path class="st1" d="M744.4,481.1v-11.9h-11.9v11.9H744.4z"/>
<path class="st1" d="M552.7,317.2h-13.2v13.3h13.2V317.2z"/>
<path class="st1" d="M429.2,521.1v-11.9h-11.9v11.9H429.2z"/>
<path class="st1" d="M637.7,609.9l-8.1-8.2L616,615.3h-8.5v-30.8l7.3-7.3l2.7-2.7l2.9-2.7l5.6-5.6v-8.5v-13.9l-12-11.9l-16.6,16.6
	l2.9,2.7l8.3-8.3l6.3,6.5v22.3l-16.9,17l-1.4,1.4v27.9h11h19.8h2.2L637.7,609.9z"/>
<path class="st0" d="M626,557.8v8.5l-5.6,5.6l-2.9,2.7l-2.7,2.7l-7.3,7.3v30.8h4.6v-30.8l7.3-7.3l2.5-2.7l2.9-2.7l5.6-5.6v-8.5
	v-13.9l-12-11.9H614l12,11.9V557.8z"/>
<path class="st0" d="M634.2,601.8h-4.6l8.1,8.2l-8.1,8h4.6l8-8L634.2,601.8z"/>
<path class="st0" d="M610.8,545.3l-2.2-2.4l-8.3,8.3h4.4L610.8,545.3z"/>
<path class="st2" d="M682.1,581v17.8h-12.2v-5.1v-13.4h-8.6v-25.7h-15.6v39.1h8v25.1h11.9h4.4h20.8v-12.1v-8V581H682.1z"/>
<path class="st0" d="M697.2,554.5V544H686v10.7h-3.9V581h8.6v17.8v7.1h6.4v-12.2h5.4v-39.2H697.2z"/>
<path class="st1" d="M689.4,532.4H663v6.5h-9.3v15.8h7.6v25.7h8.6v-25.7H686V544h3.4V532.4z"/>
<path class="st1" d="M519.1,609.9l-8.1-8.2l-13.6,13.6h-8.5v-30.8l7.3-7.3l2.7-2.7l2.9-2.7l5.6-5.6v-8.5v-13.9l-12-11.9l-16.6,16.6
	l2.9,2.7l8.3-8.3l6.3,6.5v22.3l-16.9,17l-1.4,1.4v27.9h11h19.8h2.2L519.1,609.9z"/>
<path class="st0" d="M507.4,557.8v8.5l-5.6,5.6l-2.9,2.7l-2.7,2.7l-7.3,7.3v30.8h4.6v-30.8l7.3-7.3l2.5-2.7l2.9-2.7l5.6-5.6v-8.5
	v-13.9l-12-11.9h-4.4l12,11.9V557.8z"/>
<path class="st0" d="M492.2,545.3L490,543l-8.3,8.3h4.4L492.2,545.3z"/>
<path class="st0" d="M515.5,601.8H511l8.1,8.2l-8.1,8h4.6l8-8L515.5,601.8z"/>
<path class="st2" d="M563.5,581v17.8h-12.2v-5.1v-13.4h-8.6v-25.7h-15.6v39.1h8v25.1h11.9h4.4h20.8v-12.1v-8V581H563.5z"/>
<path class="st0" d="M578.6,554.5V544h-11.2v10.7h-3.9V581h8.6v17.8v7.1h6.4v-12.2h5.4v-39.2H578.6z"/>
<path class="st1" d="M570.8,532.4h-26.4v6.5H535v15.8h7.6v25.7h8.6v-25.7h16.1V544h3.4V532.4z"/>
<path class="st0" d="M505.9,371.2c0.5,0,0.8-0.4,0.8-0.8s-0.4-0.9-0.8-0.9c-0.5,0-0.8,0.4-0.8,0.9S505.4,371.2,505.9,371.2z"/>
<path class="st0" d="M504,393.5c0.5,0,0.8-0.4,0.8-0.8s-0.4-0.9-0.8-0.9c-0.5,0-0.8,0.4-0.8,0.9S503.6,393.5,504,393.5z"/>
<path class="st0" d="M507.8,405.5c0.5,0,0.8-0.4,0.8-0.9c0-0.5-0.4-0.8-0.8-0.8c-0.5,0-0.8,0.4-0.8,0.8
	C506.9,405.1,507.3,405.5,507.8,405.5z"/>
<path class="st0" d="M503.3,383.3c0.5,0,0.8-0.4,0.8-0.9s-0.4-0.8-0.8-0.8c-0.5,0-0.8,0.4-0.8,0.8S502.9,383.3,503.3,383.3z"/>
<path class="st0" d="M511,362.9c0.5,0,0.8-0.4,0.8-0.8c0-0.5-0.4-0.8-0.8-0.8c-0.5,0-0.8,0.4-0.8,0.8
	C510.1,362.5,510.5,362.9,511,362.9z"/>
<path class="st0" d="M494.4,353.5c0.5,0,0.8-0.4,0.8-0.8c0-0.5-0.4-0.8-0.8-0.8c-0.5,0-0.8,0.4-0.8,0.8
	C493.5,353.2,493.9,353.5,494.4,353.5z"/>
<path class="st0" d="M518.4,382.2c0.5,0,0.8-0.4,0.8-0.8s-0.4-0.9-0.8-0.9s-0.8,0.4-0.8,0.9S518,382.2,518.4,382.2z"/>
<path class="st0" d="M530.5,358.6c0.5,0,0.8-0.4,0.8-0.8c0-0.5-0.4-0.9-0.8-0.9s-0.8,0.4-0.8,0.9C529.6,358.3,530,358.6,530.5,358.6
	z"/>
<path class="st0" d="M546.9,361.9c0.5,0,0.8-0.4,0.8-0.8s-0.4-0.9-0.8-0.9c-0.5,0-0.8,0.4-0.8,0.9S546.4,361.9,546.9,361.9z"/>
<path class="st0" d="M477.1,366.1c0.5,0,0.8-0.4,0.8-0.8c0-0.5-0.4-0.9-0.8-0.9c-0.5,0-0.8,0.4-0.8,0.9
	C476.2,365.7,476.6,366.1,477.1,366.1z"/>
<path class="st0" d="M490.1,373.6c0.5,0,0.8-0.4,0.8-0.9c0-0.5-0.4-0.8-0.8-0.8c-0.5,0-0.8,0.4-0.8,0.8
	C489.3,373.2,489.7,373.6,490.1,373.6z"/>
<path class="st0" d="M488.3,362.5c0.5,0,0.8-0.4,0.8-0.9c0-0.5-0.4-0.8-0.8-0.8s-0.8,0.4-0.8,0.8
	C487.4,362.2,487.8,362.5,488.3,362.5z"/>
<path class="st0" d="M475.9,350.6c0.5,0,0.8-0.4,0.8-0.8c0-0.5-0.4-0.8-0.8-0.8c-0.5,0-0.8,0.4-0.8,0.8
	C475,350.3,475.4,350.6,475.9,350.6z"/>
<path class="st0" d="M517.6,368.1c0.5,0,0.8-0.4,0.8-0.8c0-0.5-0.4-0.9-0.8-0.9c-0.5,0-0.8,0.4-0.8,0.9
	C516.7,367.8,517.1,368.1,517.6,368.1z"/>
<path class="st0" d="M614.4,395.3c0.5,0,0.8-0.4,0.8-0.8s-0.4-0.9-0.8-0.9s-0.8,0.4-0.8,0.9S613.9,395.3,614.4,395.3z"/>
<path class="st0" d="M661.8,370.5c0.5,0,0.8-0.4,0.8-0.9s-0.4-0.8-0.8-0.8c-0.5,0-0.8,0.4-0.8,0.8S661.3,370.5,661.8,370.5z"/>
<path class="st0" d="M631,409.6c0.5,0,0.8-0.4,0.8-0.8s-0.4-0.8-0.8-0.8s-0.8,0.4-0.8,0.8S630.5,409.6,631,409.6z"/>
<path class="st0" d="M624,402.3c0.5,0,0.8-0.4,0.8-0.9s-0.4-0.8-0.8-0.8c-0.5,0-0.8,0.4-0.8,0.8S623.5,402.3,624,402.3z"/>
<path class="st0" d="M632.8,420.6c0.5,0,0.8-0.4,0.8-0.8c0-0.5-0.4-0.8-0.8-0.8c-0.5,0-0.8,0.4-0.8,0.8
	C632,420.3,632.4,420.6,632.8,420.6z"/>
<path class="st0" d="M676.6,380c0.5,0,0.8-0.4,0.8-0.8c0-0.5-0.4-0.8-0.8-0.8s-0.8,0.4-0.8,0.8C675.7,379.7,676.1,380,676.6,380z"/>
<path class="st0" d="M615.2,412.5c0.5,0,0.8-0.4,0.8-0.8s-0.4-0.9-0.8-0.9c-0.5,0-0.8,0.4-0.8,0.9S614.7,412.5,615.2,412.5z"/>
<path class="st0" d="M661,383.3c0.5,0,0.8-0.4,0.8-0.9s-0.4-0.8-0.8-0.8c-0.5,0-0.8,0.4-0.8,0.8S660.5,383.3,661,383.3z"/>
<path class="st0" d="M681.5,366.3c0.5,0,0.8-0.4,0.8-0.8s-0.4-0.8-0.8-0.8c-0.5,0-0.8,0.4-0.8,0.8S681,366.3,681.5,366.3z"/>
<path class="st0" d="M689.1,360.3c0.5,0,0.8-0.4,0.8-0.8s-0.4-0.9-0.8-0.9c-0.5,0-0.8,0.4-0.8,0.9S688.6,360.3,689.1,360.3z"/>
<path class="st0" d="M646.6,373.6c0.5,0,0.8-0.4,0.8-0.9c0-0.5-0.4-0.8-0.8-0.8s-0.8,0.4-0.8,0.8
	C645.7,373.2,646.1,373.6,646.6,373.6z"/>
<path class="st0" d="M620.6,386.8c0.5,0,0.8-0.4,0.8-0.9s-0.4-0.8-0.8-0.8s-0.8,0.4-0.8,0.8S620.2,386.8,620.6,386.8z"/>
<path class="st0" d="M669.1,361.9c0.5,0,0.8-0.4,0.8-0.8s-0.4-0.9-0.8-0.9c-0.5,0-0.8,0.4-0.8,0.9S668.6,361.9,669.1,361.9z"/>
<path class="st0" d="M653.7,358.6c0.5,0,0.8-0.4,0.8-0.8s-0.4-0.9-0.8-0.9c-0.5,0-0.8,0.4-0.8,0.9S653.2,358.6,653.7,358.6z"/>
<path class="st0" d="M631.8,393.1c0.5,0,0.8-0.4,0.8-0.8c0-0.5-0.4-0.8-0.8-0.8s-0.8,0.4-0.8,0.8C631,392.7,631.3,393.1,631.8,393.1
	z"/>
<path class="st0" d="M802.3,458.4c0.5,0,0.8-0.4,0.8-0.8s-0.4-0.9-0.8-0.9c-0.5,0-0.8,0.4-0.8,0.9S801.8,458.4,802.3,458.4z"/>
<path class="st0" d="M801.1,427.1c0.5,0,0.8-0.4,0.8-0.8c0-0.5-0.4-0.9-0.8-0.9s-0.8,0.4-0.8,0.9
	C800.3,426.7,800.6,427.1,801.1,427.1z"/>
<path class="st0" d="M801.3,403.3c0.5,0,0.8-0.4,0.8-0.8c0-0.5-0.4-0.9-0.8-0.9s-0.8,0.4-0.8,0.9
	C800.4,402.9,800.8,403.3,801.3,403.3z"/>
<path class="st0" d="M797.9,442.2c0.5,0,0.8-0.4,0.8-0.8s-0.4-0.8-0.8-0.8c-0.5,0-0.8,0.4-0.8,0.8S797.4,442.2,797.9,442.2z"/>
<path class="st0" d="M789.9,483.3c0.5,0,0.8-0.4,0.8-0.9c0-0.5-0.4-0.8-0.8-0.8s-0.8,0.4-0.8,0.8C789.1,483,789.5,483.3,789.9,483.3
	z"/>
<path class="st0" d="M785.9,496.9c0.5,0,0.8-0.4,0.8-0.8s-0.4-0.9-0.8-0.9c-0.5,0-0.8,0.4-0.8,0.9S785.4,496.9,785.9,496.9z"/>
<path class="st0" d="M789.9,415.5c0.5,0,0.8-0.4,0.8-0.8s-0.4-0.9-0.8-0.9s-0.8,0.4-0.8,0.9S789.5,415.5,789.9,415.5z"/>
<path class="st0" d="M803.8,481c0.5,0,0.8-0.4,0.8-0.8s-0.4-0.9-0.8-0.9s-0.8,0.4-0.8,0.9S803.4,481,803.8,481z"/>
<path class="st0" d="M790.9,457.9c0.5,0,0.8-0.4,0.8-0.8c0-0.5-0.4-0.8-0.8-0.8s-0.8,0.4-0.8,0.8
	C790.1,457.5,790.5,457.9,790.9,457.9z"/>
<path class="st0" d="M783.8,472.1c0.5,0,0.8-0.4,0.8-0.8c0-0.5-0.4-0.8-0.8-0.8c-0.5,0-0.8,0.4-0.8,0.8
	C783,471.7,783.4,472.1,783.8,472.1z"/>
<path class="st0" d="M781.6,430.2c0.5,0,0.8-0.4,0.8-0.8s-0.4-0.9-0.8-0.9c-0.5,0-0.8,0.4-0.8,0.9S781.2,430.2,781.6,430.2z"/>
<path class="st0" d="M357.8,492.7c0.5,0,0.8-0.4,0.8-0.8s-0.4-0.9-0.8-0.9c-0.5,0-0.8,0.4-0.8,0.9S357.3,492.7,357.8,492.7z"/>
<path class="st0" d="M383,488.1c0.5,0,0.8-0.4,0.8-0.8c0-0.5-0.4-0.8-0.8-0.8c-0.5,0-0.8,0.4-0.8,0.8
	C382.2,487.7,382.5,488.1,383,488.1z"/>
<path class="st0" d="M358.6,396.7c0.5,0,0.8-0.4,0.8-0.9s-0.4-0.8-0.8-0.8c-0.5,0-0.8,0.4-0.8,0.8S358.1,396.7,358.6,396.7z"/>
<path class="st0" d="M366.6,364.8c0.5,0,0.8-0.4,0.8-0.8s-0.4-0.9-0.8-0.9c-0.5,0-0.8,0.4-0.8,0.9S366.1,364.8,366.6,364.8z"/>
<path class="st0" d="M381,349.6c0.5,0,0.8-0.4,0.8-0.8c0-0.5-0.4-0.9-0.8-0.9c-0.5,0-0.8,0.4-0.8,0.9
	C380.1,349.3,380.5,349.6,381,349.6z"/>
<path class="st0" d="M361.2,448c0.5,0,0.8-0.4,0.8-0.8c0-0.5-0.4-0.8-0.8-0.8s-0.8,0.4-0.8,0.8C360.3,447.6,360.7,448,361.2,448z"/>
<path class="st0" d="M360.5,482.1c0.5,0,0.8-0.4,0.8-0.9s-0.4-0.8-0.8-0.8c-0.5,0-0.8,0.4-0.8,0.8S360,482.1,360.5,482.1z"/>
<path class="st0" d="M363.7,422.3c0.5,0,0.8-0.4,0.8-0.8s-0.4-0.9-0.8-0.9c-0.5,0-0.8,0.4-0.8,0.9S363.2,422.3,363.7,422.3z"/>
<path class="st0" d="M373.2,474.7c0.5,0,0.8-0.4,0.8-0.8s-0.4-0.8-0.8-0.8c-0.5,0-0.8,0.4-0.8,0.8S372.7,474.7,373.2,474.7z"/>
<path class="st0" d="M368.3,486.7c0.5,0,0.8-0.4,0.8-0.8c0-0.5-0.4-0.9-0.8-0.9c-0.5,0-0.8,0.4-0.8,0.9
	C367.4,486.4,367.8,486.7,368.3,486.7z"/>
<path class="st0" d="M372.5,348.3c0.5,0,0.8-0.4,0.8-0.9c0-0.5-0.4-0.8-0.8-0.8c-0.5,0-0.8,0.4-0.8,0.8
	C371.7,347.9,372,348.3,372.5,348.3z"/>
<path class="st0" d="M368.1,455.6c0.5,0,0.8-0.4,0.8-0.8s-0.4-0.9-0.8-0.9c-0.5,0-0.8,0.4-0.8,0.9S367.6,455.6,368.1,455.6z"/>
<path class="st0" d="M380,461.9c0.5,0,0.8-0.4,0.8-0.8c0-0.5-0.4-0.8-0.8-0.8c-0.5,0-0.8,0.4-0.8,0.8
	C379.1,461.5,379.5,461.9,380,461.9z"/>
<path class="st0" d="M358.6,351c0.5,0,0.8-0.4,0.8-0.8c0-0.5-0.4-0.9-0.8-0.9c-0.5,0-0.8,0.4-0.8,0.9
	C357.8,350.6,358.1,351,358.6,351z"/>
<path class="st0" d="M362.2,436.4c0.5,0,0.8-0.4,0.8-0.8s-0.4-0.9-0.8-0.9c-0.5,0-0.8,0.4-0.8,0.9S361.7,436.4,362.2,436.4z"/>
<path class="st0" d="M657.7,545c0.6,0,1-0.5,1-1c0-0.6-0.5-1-1-1s-1,0.5-1,1C656.7,544.6,657.2,545,657.7,545z"/>
<path class="st0" d="M677.4,537.4c0.6,0,1-0.5,1-1s-0.5-1-1-1c-0.6,0-1,0.5-1,1S676.8,537.4,677.4,537.4z"/>
<path class="st0" d="M669.8,546.7c0.6,0,1-0.5,1-1s-0.5-1-1-1s-1,0.5-1,1S669.2,546.7,669.8,546.7z"/>
<path class="st0" d="M681.1,549.8c0.6,0,1-0.5,1-1s-0.5-1-1-1c-0.6,0-1,0.5-1,1S680.6,549.8,681.1,549.8z"/>
<path class="st0" d="M666.6,553.3c0.6,0,1-0.5,1-1s-0.5-1-1-1c-0.6,0-1,0.5-1,1S666,553.3,666.6,553.3z"/>
<path class="st0" d="M665.5,577.1c0.6,0,1-0.5,1-1c0-0.6-0.5-1-1-1c-0.6,0-1,0.5-1,1C664.5,576.7,665,577.1,665.5,577.1z"/>
<path class="st0" d="M664,564.4c0.6,0,1-0.5,1-1s-0.5-1-1-1c-0.6,0-1,0.5-1,1S663.4,564.4,664,564.4z"/>
<path class="st0" d="M539.1,545c0.6,0,1-0.5,1-1c0-0.6-0.5-1-1-1c-0.6,0-1,0.5-1,1C538.1,544.6,538.5,545,539.1,545z"/>
<path class="st0" d="M545.4,549.8c0.6,0,1-0.5,1-1s-0.5-1-1-1c-0.6,0-1,0.5-1,1S544.8,549.8,545.4,549.8z"/>
<path class="st0" d="M563.5,538.4c0.6,0,1-0.5,1-1s-0.5-1-1-1c-0.6,0-1,0.5-1,1S563,538.4,563.5,538.4z"/>
<path class="st0" d="M557.7,547.7c0.6,0,1-0.5,1-1s-0.5-1-1-1c-0.6,0-1,0.5-1,1S557.2,547.7,557.7,547.7z"/>
<path class="st0" d="M546.9,559.8c0.6,0,1-0.5,1-1s-0.5-1-1-1c-0.6,0-1,0.5-1,1S546.3,559.8,546.9,559.8z"/>
<path class="st0" d="M547.9,542.8c0.6,0,1-0.5,1-1s-0.5-1-1-1s-1,0.5-1,1S547.4,542.8,547.9,542.8z"/>
<path class="st0" d="M546.4,573.9c0.6,0,1-0.5,1-1s-0.5-1-1-1c-0.6,0-1,0.5-1,1S545.8,573.9,546.4,573.9z"/>
<path class="st2" d="M1059.7,82.9c0-2.4-4.6-3.4-5.4-4.9c-0.5-0.8,1-1.5,2.2-1.4c0.8,0,8.1,1.4,13.2,1.4c17.3,0.5,21.9-3.7,21.7-6.1
	c-0.2-2.4-6.8-3.6-7.8-5.1c-0.8-1.5,0.3-3.1,6.3-4.1c6.1-1,16.6-1.5,23.5-4.8c7-3.2,5.4-7-3.4-9.7c-3.2-1.4-1.2-3.4,4.9-8.2
	c6.1-4.8,21.2-19.7,16.4-27.5c-4.1-5.8-11.5-2.4-16.8,3.1c-4.1,4.1-12,12.4-14.9,12.6c-5.3,0.5-0.5-7.5-3.2-10.4
	c-2.7-2.9-8.5,2.2-10.8,6.5c-2.4,4.2-4.2,11-6.8,16c-2.7,5.4-5.4,3.4-6.3,1.5c-0.7-1.9,0.5-9.5-4.8-10.4c-4.6-0.7-10,11-14.6,17.7
	c-1.7,2.5-3.9,4.9-6.3,7c-1.4,1-2,0.7-2.4,0c-0.7-1,0-7.5-4.6-8.8c-4.1-1-8,5.8-13.2,12.1c-4.2,5.1-10.2,7.8-16.6,9.9
	c-8.8,2.7-22.2,3.4-22.2,3.4s6.6,2.9,12.2,4.6c13.6,4.1,20,6.3,35.3,7.8C1047,86.1,1059.1,87.3,1059.7,82.9
	C1059.7,82.9,1059.7,83.1,1059.7,82.9z"/>
<path class="st2" d="M356.2,214.6c7.3-15.5,4.9-34.8-3.2-50.1c-8-15-18.3-25.7-34.9-33.5c-4.1-1.9-15.1-5.1-15.1-5.1
	s0.2,9.3,0.5,12.1c1.5,11.4,3.2,23.3,10.2,31.1c6.4,7.3,14.7,10.9,23.4,15.6C361,198.1,356.2,214.6,356.2,214.6z"/>
<path class="st2" d="M232.4,322.4c0,0,44.4-2.2,61,30.6c17.8,35,35.3,46.9,35.3,46.9s-36.1,4.9-53.2-15.8
	C258.1,363.4,265.7,342.5,232.4,322.4z"/>
<path class="st2" d="M1053.3,239.4c0,0-8.6-22.9,2.4-38.1c8.6-12.1,29.1-15,47.5-12.9c12.4,1.4,28.1-6.6,28.1-6.6s0,18.3-20,24.1
	c-11.2,3.2-21-1.7-36.4,8.7C1054.7,228,1053.3,239.4,1053.3,239.4z"/>
<path class="st2" d="M598.3,250.8c-7.3-15.5-4.7-34.7,3.2-50.1c14.6-28,50-33.5,50-33.5s-3.1,22.9-14.1,36
	c-6.3,7.5-17.3,10.2-24.9,16.3C594.4,233.9,598.3,250.8,598.3,250.8z"/>
<path class="st2" d="M963.3,284.1c-1.4-1-57.6-21.2-6.9-62.7l34.7-28c0,0,1.2,31.1-20.7,51.5C948.7,264.7,963.3,284.1,963.3,284.1z"
	/>
<path class="st2" d="M403,284.1c-1.4-1-57.6-21.2-6.9-62.7l34.7-28c0,0,1.2,31.1-20.7,51.5C388.6,264.7,403,284.1,403,284.1z"/>
<path class="st2" d="M902.3,404.8c0,0,19.7-30.4,53.2-33c28.1-2.2,63.2,14.1,63.2,14.1s-27.5,22.9-62.2,19.2
	C931.4,402.5,924.2,394.1,902.3,404.8z"/>
<path class="st2" d="M216.4,111.1c-4.4,0-4.7,12.2-5.3,23.8c-0.5,15.3,0.8,21.9,3.1,36c0.8,5.8,2.9,12.7,2.9,12.7s2.4-13.3,6.3-21.7
	c2.9-6.1,6.3-11.7,11.9-15.3c6.8-4.2,14.1-7.3,13.7-11.4c-0.8-4.8-7.3-4.9-8.1-5.8c-0.5-0.5-0.8-1.2,0.3-2.4c2.4-2,5.1-3.9,7.8-5.3
	c7.1-3.7,19.5-7.5,19.3-12.1c-0.2-5.4-7.8-5.1-9.5-6.1c-1.9-1-3.4-3.9,2.4-5.9c5.3-1.9,12.2-2.7,16.8-4.6c4.6-1.7,10.3-6.6,8-9.9
	c-2.5-3.2-11,0.5-9.8-4.8c0.7-2.9,9.8-9.7,14.6-13.1c6.1-4.4,10.5-11.6,5.3-16.3c-7.1-5.8-23.9,7.1-29.5,12.6s-7.8,7.1-8.8,3.9
	c-1.5-9-5.1-11-9.2-4.6c-4.1,6.5-6.1,16.8-7.8,22.8c-1.7,5.9-3.6,6.8-4.9,5.8c-1.4-1-1.7-8-4.1-8.3c-2.2-0.5-6.9,3.4-9,20.7
	c-0.5,4.9-0.3,12.4-0.3,13.3c-0.2,1.4-0.8,2.7-1.7,2C219.1,116.2,218.8,111.3,216.4,111.1z"/>
<path class="st2" d="M823.5,236.3c2.2-0.5,2.2-5.3,3.6-6.3c0.8-0.7,1.5,0.7,1.9,1.9c0.2,0.8,0.5,8.3,1.4,13.3
	c3.2,17.2,8.1,20.6,10.3,19.9c2.2-0.7,2-7.5,3.4-8.7c1.4-1.2,3.1-0.3,5.3,5.3c2.2,5.8,4.9,16,9.5,22.1s7.8,3.7,8.6-5.4
	c0.7-3.4,3.1-1.9,9,3.1c5.9,4.9,23.4,16.5,30,10.4c4.7-5.1-0.2-11.9-6.4-15.8c-4.7-3.2-14.4-9.2-15.3-12.1c-1.5-5.1,7.1-2,9.3-5.4
	c2.2-3.4-3.9-7.8-8.5-9.2c-4.6-1.4-11.5-1.9-16.8-3.2c-5.8-1.5-4.4-4.6-2.7-5.8c1.5-1.2,9.2-1.4,9-6.8c-0.2-4.6-12.7-7.5-20-10.5
	c-2.7-1.2-5.4-2.9-8-4.8c-1.2-1-1-1.9-0.5-2.4c0.8-0.8,7.1-1.7,7.6-6.5c0-4.1-7.3-6.6-14.2-10.4c-5.9-3.1-9.7-8.3-12.9-14.3
	c-4.4-8-7.6-20.6-7.6-20.6s-1.5,6.5-2,12.4c-1,14.3-1.9,21.1-0.2,36.2C817.9,224.4,819.1,236.6,823.5,236.3z"/>
<path class="st0" d="M767.9,122.8c-0.2,0.3-17.8,27.2-21.7,69c-0.3-3.1-0.3-7.3-0.5-10.5c5.4-36.7,20.2-59.5,20.3-59.6L767.9,122.8z
	"/>
<path class="st0" d="M300,386.8c-9.7-4.6-13.6-12.6-18-21.9c-3.2-6.8-6.9-14.6-13.7-22.1c-18.3-19.9-59.8-24.3-60.2-24.3l0.3-2.5
	c1.7,0.2,42.9,4.6,61.9,25.1c7.1,7.6,10.8,15.6,14.2,22.6c4.2,8.8,7.8,16.5,16.6,20.6L300,386.8z"/>
<path class="st0" d="M216.9,203.2c-1-8-4.9-48.9,9.2-79.2c16.6-35.3,48.5-58.4,48.8-58.6l1.5,2c-0.3,0.2-31.7,22.9-48,57.8
	c-13.9,29.6-9.8,70-9,77.8L216.9,203.2z"/>
<path class="st0" d="M1015.5,76.1c-21.9,0-41.5-4.8-46.8-6.1l0.7-2.5c7.6,2,46.9,11.4,78.1,1.7c36.6-11.4,63.2-39.4,63.5-39.8
	l1.9,1.7c-0.3,0.3-27.4,28.7-64.6,40.4C1037.7,74.9,1026.2,76.1,1015.5,76.1z"/>
<path class="st0" d="M884.5,277.3c-0.3-0.2-33.4-20.7-52.4-54.7c-7.5-13.3-11-29.2-13.1-43.3c-0.5-3.4-1-10.4-1-10.4l1.5-8
	c0.8,16.5,4.2,41.6,14.7,60.5c18.6,33.3,51.2,53.7,51.5,53.9L884.5,277.3z"/>
<path class="st0" d="M360.3,190.8c-0.2-2-0.3-4.2-0.7-6.3c-14.2-22.4-42-41.8-43.4-42.6l-1.4,2C315.1,144.1,347.8,166.7,360.3,190.8
	z"/>
<path class="st0" d="M415.4,215.8c-0.2,0.2-10.3,10-20,19.2c-11.9,11.2-16.1,22.6-12.9,35.8c1.2,1.2,2.4,2.4,3.7,3.4
	c-4.9-14.1-1.5-25.7,11-37.4c9.7-9.2,20-19.2,20-19.2L415.4,215.8z"/>
<path class="st0" d="M974,219.7c-0.2,0.2-10.3,10-20,19.2c-9.7,9.2-14.2,18.3-13.9,28.5c0.8,1.2,1.9,2.2,2.9,3.2
	c-1.5-10.9,2.5-20.4,12.9-30.1c9.7-9.2,20-19.2,20-19.2L974,219.7z"/>
<path class="st0" d="M594.9,220.5c-0.3,2.2-0.7,4.4-0.7,6.6c12.2-25.1,41.7-42.1,42-42.3l-1.2-2.2c-0.2,0-10.7,6.1-21.7,16.1
	C607.1,204.4,600.1,211.7,594.9,220.5z"/>
<path class="st0" d="M1071.3,201.1c11.7-5.8,30.2-3.7,30.3-3.7l0.3-2.5c-0.8-0.2-19.5-2.2-31.9,3.9c-8.1,3.9-14.8,10.2-20,18.7
	c-0.2,1.7-0.2,3.6,0,5.3C1055.3,212.9,1062.4,205.6,1071.3,201.1z"/>
<path class="st0" d="M889.8,417.8l-2-1.5c0.3-0.3,6.8-8.8,17.8-15.6c6.1-3.7,12.9-6.8,21.5-9.9c23.6-8,58.3-5.3,59.8-5.1l-0.2,2.5
	c-0.3,0-35.8-2.9-58.8,5.1c-8.6,2.9-15.1,5.9-21,9.5C896.4,409.3,889.9,417.8,889.8,417.8z"/>
</svg>
